<svg xmlns="http://www.w3.org/2000/svg" viewBox="0 0 64 64" fill="none">
  <rect width="64" height="64" rx="14" fill="#0a0a0f"/>
  <circle cx="32" cy="32" r="22" stroke="url(#grad)" stroke-width="2" fill="none" opacity="0.8"/>
  <ellipse cx="32" cy="18" rx="4" ry="8" fill="url(#grad)" opacity="0.9" transform="rotate(0 32 32)"/>
  <ellipse cx="32" cy="18" rx="4" ry="8" fill="url(#grad)" opacity="0.9" transform="rotate(45 32 32)"/>
  <ellipse cx="32" cy="18" rx="4" ry="8" fill="url(#grad)" opacity="0.9" transform="rotate(90 32 32)"/>
  <ellipse cx="32" cy="18" rx="4" ry="8" fill="url(#grad)" opacity="0.9" transform="rotate(135 32 32)"/>
  <ellipse cx="32" cy="18" rx="4" ry="8" fill="url(#grad)" opacity="0.7" transform="rotate(22.5 32 32)"/>
  <ellipse cx="32" cy="18" rx="4" ry="8" fill="url(#grad)" opacity="0.7" transform="rotate(67.5 32 32)"/>
  <ellipse cx="32" cy="18" rx="4" ry="8" fill="url(#grad)" opacity="0.7" transform="rotate(112.5 32 32)"/>
  <ellipse cx="32" cy="18" rx="4" ry="8" fill="url(#grad)" opacity="0.7" transform="rotate(157.5 32 32)"/>
  <circle cx="32" cy="32" r="5" fill="#33ccff" opacity="0.95"/>
  <defs>
    <linearGradient id="grad" x1="0" y1="0" x2="64" y2="64" gradientUnits="userSpaceOnUse">
      <stop offset="0%" stop-color="#ff3366"/>
      <stop offset="25%" stop-color="#33ccff"/>
      <stop offset="50%" stop-color="#33ff99"/>
      <stop offset="75%" stop-color="#9933ff"/>
      <stop offset="100%" stop-color="#ff33cc"/>
    </linearGradient>
  </defs>
</svg>
